<mxfile host="app.diagrams.net" agent="Mozilla/5.0 (Windows NT 10.0; Win64; x64) AppleWebKit/537.36 (KHTML, like Gecko) Chrome/129.0.0.0 Safari/537.36" version="24.7.17">
  <diagram id="C5RBs43oDa-KdzZeNtuy" name="Page-1">
    <mxGraphModel dx="1050" dy="557" grid="1" gridSize="10" guides="1" tooltips="1" connect="1" arrows="1" fold="1" page="1" pageScale="1" pageWidth="827" pageHeight="1169" math="0" shadow="0">
      <root>
        <mxCell id="WIyWlLk6GJQsqaUBKTNV-0" />
        <mxCell id="WIyWlLk6GJQsqaUBKTNV-1" parent="WIyWlLk6GJQsqaUBKTNV-0" />
        <mxCell id="WIyWlLk6GJQsqaUBKTNV-3" value="mulai" style="rounded=1;whiteSpace=wrap;html=1;fontSize=12;glass=0;strokeWidth=1;shadow=0;" parent="WIyWlLk6GJQsqaUBKTNV-1" vertex="1">
          <mxGeometry x="30" y="40" width="120" height="40" as="geometry" />
        </mxCell>
        <mxCell id="pJdw8WRcIaDxckqF8YET-0" value="" style="endArrow=classic;html=1;rounded=0;" edge="1" parent="WIyWlLk6GJQsqaUBKTNV-1">
          <mxGeometry width="50" height="50" relative="1" as="geometry">
            <mxPoint x="150" y="59.5" as="sourcePoint" />
            <mxPoint x="220" y="59.5" as="targetPoint" />
          </mxGeometry>
        </mxCell>
        <mxCell id="pJdw8WRcIaDxckqF8YET-1" value="deklarasi variabel&lt;div&gt;pin sev.seg (a,b,c,d,e, ...)&lt;/div&gt;&lt;div&gt;pin (digital 1, 2)&lt;/div&gt;" style="rounded=0;whiteSpace=wrap;html=1;" vertex="1" parent="WIyWlLk6GJQsqaUBKTNV-1">
          <mxGeometry x="220" y="7.5" width="170" height="105" as="geometry" />
        </mxCell>
        <mxCell id="pJdw8WRcIaDxckqF8YET-2" value="" style="endArrow=classic;html=1;rounded=0;" edge="1" parent="WIyWlLk6GJQsqaUBKTNV-1">
          <mxGeometry width="50" height="50" relative="1" as="geometry">
            <mxPoint x="390" y="60" as="sourcePoint" />
            <mxPoint x="440" y="60" as="targetPoint" />
          </mxGeometry>
        </mxCell>
        <mxCell id="pJdw8WRcIaDxckqF8YET-4" value="start loop" style="rounded=1;whiteSpace=wrap;html=1;" vertex="1" parent="WIyWlLk6GJQsqaUBKTNV-1">
          <mxGeometry x="475" y="140" width="70" height="40" as="geometry" />
        </mxCell>
        <mxCell id="pJdw8WRcIaDxckqF8YET-5" value="" style="endArrow=classic;html=1;rounded=0;" edge="1" parent="WIyWlLk6GJQsqaUBKTNV-1">
          <mxGeometry width="50" height="50" relative="1" as="geometry">
            <mxPoint x="510" y="95" as="sourcePoint" />
            <mxPoint x="510" y="135" as="targetPoint" />
          </mxGeometry>
        </mxCell>
        <mxCell id="pJdw8WRcIaDxckqF8YET-8" value="PinMode input=dig1,dig2&lt;div&gt;PinMode output,(a,b,c,d ...)&lt;/div&gt;" style="shape=parallelogram;perimeter=parallelogramPerimeter;whiteSpace=wrap;html=1;fixedSize=1;" vertex="1" parent="WIyWlLk6GJQsqaUBKTNV-1">
          <mxGeometry x="440" y="20" width="190" height="70" as="geometry" />
        </mxCell>
        <mxCell id="pJdw8WRcIaDxckqF8YET-9" value="" style="endArrow=classic;html=1;rounded=0;" edge="1" parent="WIyWlLk6GJQsqaUBKTNV-1">
          <mxGeometry width="50" height="50" relative="1" as="geometry">
            <mxPoint x="509.5" y="180" as="sourcePoint" />
            <mxPoint x="509.5" y="220" as="targetPoint" />
          </mxGeometry>
        </mxCell>
        <mxCell id="pJdw8WRcIaDxckqF8YET-10" value="start counting" style="rounded=0;whiteSpace=wrap;html=1;" vertex="1" parent="WIyWlLk6GJQsqaUBKTNV-1">
          <mxGeometry x="440" y="230" width="140" height="60" as="geometry" />
        </mxCell>
        <mxCell id="pJdw8WRcIaDxckqF8YET-11" value="" style="endArrow=classic;html=1;rounded=0;" edge="1" parent="WIyWlLk6GJQsqaUBKTNV-1">
          <mxGeometry width="50" height="50" relative="1" as="geometry">
            <mxPoint x="509.5" y="290" as="sourcePoint" />
            <mxPoint x="509.5" y="340" as="targetPoint" />
          </mxGeometry>
        </mxCell>
        <mxCell id="pJdw8WRcIaDxckqF8YET-12" value="&lt;div&gt;output&lt;/div&gt;&lt;div&gt;number0();&lt;/div&gt;&lt;div&gt;number1();&lt;/div&gt;&lt;div&gt;number2();&lt;/div&gt;&lt;div&gt;dst...&lt;/div&gt;" style="shape=parallelogram;perimeter=parallelogramPerimeter;whiteSpace=wrap;html=1;fixedSize=1;" vertex="1" parent="WIyWlLk6GJQsqaUBKTNV-1">
          <mxGeometry x="425" y="350" width="170" height="80" as="geometry" />
        </mxCell>
        <mxCell id="pJdw8WRcIaDxckqF8YET-13" value="selesai/repeat" style="rounded=1;whiteSpace=wrap;html=1;" vertex="1" parent="WIyWlLk6GJQsqaUBKTNV-1">
          <mxGeometry x="450" y="480" width="120" height="60" as="geometry" />
        </mxCell>
        <mxCell id="pJdw8WRcIaDxckqF8YET-14" value="" style="endArrow=classic;html=1;rounded=0;" edge="1" parent="WIyWlLk6GJQsqaUBKTNV-1">
          <mxGeometry width="50" height="50" relative="1" as="geometry">
            <mxPoint x="509.5" y="430" as="sourcePoint" />
            <mxPoint x="509.5" y="480" as="targetPoint" />
          </mxGeometry>
        </mxCell>
      </root>
    </mxGraphModel>
  </diagram>
</mxfile>
